<svg width="90" height="60" viewBox="0 0 90 60" fill="none" xmlns="http://www.w3.org/2000/svg">
<path d="M89.2368 29.2048C88.6442 29.0001 88.006 29.3184 87.7895 29.8982C87.7439 30.0232 86.7183 32.6378 81.989 34.4339C82.1599 30.5462 79.3793 26.6357 74.9577 25.0442C70.4564 23.4299 65.7043 24.7713 63.4137 28.0112C62.8895 27.9884 62.2969 27.8861 61.8411 27.6929C59.9038 26.863 57.9323 25.6239 57.9209 25.6126C57.7044 25.4761 57.4537 25.4193 57.1916 25.442C57.1688 25.442 54.6161 25.6921 50.411 25.5443C47.9723 25.4534 43.243 24.2825 39.7331 23.3276C37.34 21.2928 19.7789 6.38969 17.5112 4.58222C16.5197 3.79784 15.6878 3.09304 14.9813 2.51329C12.4742 0.410252 10.9585 -0.851568 9.51127 0.671711C8.56541 1.67207 7.77909 2.55876 7.77909 2.55876C7.38024 3.01347 7.40303 3.69553 7.83607 4.11614L27.38 23.2935L1.53416 17.8825C0.964366 17.7574 0.371781 18.1098 0.200843 18.6782C-0.2322 20.1901 -0.0270742 21.918 1.4316 22.35C1.56835 22.3955 1.91022 22.4978 2.41164 22.6569C5.73923 23.7028 15.8588 26.8857 22.7077 28.4545L26.5595 29.3412C30.0694 30.1483 33.2033 30.8758 35.8699 31.4783C38.263 33.3995 42.1604 36.5938 42.7302 37.2645C43.3342 37.9693 45.2943 41.607 46.5478 44.6763C45.7273 45.6766 45.1689 46.9044 44.9182 48.3026C44.5194 50.542 44.9752 52.9293 46.1946 55.0323C47.4139 57.1353 49.26 58.7268 51.4025 59.4998C52.3369 59.8408 53.2714 60 54.1831 60C55.4366 60 56.6446 59.6817 57.7386 59.0565C59.6189 57.9765 60.8724 56.1122 61.2827 53.8046C61.6815 51.5765 61.2257 49.1779 60.0063 47.0749C57.9551 43.5281 54.1945 41.6638 50.8327 42.2095C50.0008 40.834 49.1575 39.2197 48.4965 37.4236C47.5279 34.8204 47.3797 33.2403 47.3797 32.5014C47.4823 32.4559 47.5849 32.3991 47.6874 32.3536C48.4851 31.9444 49.317 31.5352 50.1147 31.3419C50.3654 31.2851 50.6276 31.2169 50.9124 31.1373C52.8725 30.6257 55.3113 29.9891 59.22 31.7284C60.2343 32.1831 61.1801 32.7401 62.0918 33.354C62.5362 36.7643 65.1687 39.9928 69.0661 41.391C70.3652 41.8571 71.6871 42.0731 72.9635 42.0731C76.6899 42.0731 80.0175 40.1746 81.3736 37.0371C88.439 34.8773 89.8749 30.7962 89.9433 30.6144C90.137 30.0346 89.8179 29.4094 89.2368 29.2048ZM79.4249 35.8776C78.2283 39.2084 73.9321 40.7317 69.8524 39.2652C65.7727 37.8102 63.4251 33.911 64.6217 30.5803C65.5106 28.1135 68.0974 26.6357 71.0489 26.6357C72.0746 26.6357 73.1458 26.8175 74.1942 27.1927C78.2739 28.6477 80.6101 32.5469 79.4249 35.8776ZM58.0349 48.223C58.9807 49.8713 59.3454 51.7129 59.0377 53.4181C58.7528 55.055 57.8753 56.3623 56.599 57.1012C55.3113 57.8401 53.75 57.9311 52.1774 57.374C50.5478 56.7829 49.1233 55.5552 48.166 53.9069C47.2088 52.2586 46.8555 50.417 47.1632 48.7118C47.4481 47.0749 48.3256 45.7676 49.6019 45.0287C50.3541 44.5967 51.1746 44.3921 52.0178 44.3921C54.2628 44.3807 56.6332 45.8017 58.0349 48.223ZM48.4737 43.0507C48.4395 43.0734 48.4054 43.0962 48.3712 43.1189C46.9581 39.8109 45.0094 36.4233 44.4852 35.7981C44.0293 35.2638 42.4453 33.911 40.8613 32.5924C42.8898 33.0357 44.2003 33.2972 44.6105 33.3313C44.7929 33.3426 44.9752 33.3199 45.1575 33.2972C45.2601 34.3998 45.5678 36.014 46.3769 38.208C47.0379 39.9814 47.8356 41.5615 48.6561 42.9484C48.5763 42.9938 48.5193 43.0166 48.4737 43.0507ZM46.6618 30.3302C45.978 30.6712 45.1461 31.1032 44.7929 31.0691C43.8242 30.9895 33.7503 28.6705 27.0837 27.1358L23.2319 26.2491C16.7362 24.76 7.17511 21.7703 3.51704 20.6221L33.0893 26.8175C33.5338 26.9085 34.001 26.7266 34.2631 26.3515L35.5508 24.4985C38.1947 25.2829 46.5592 27.6815 50.3541 27.8179C53.807 27.9429 56.1545 27.8065 57.0434 27.7383C57.7158 28.1476 59.3226 29.0911 60.9636 29.7845C61.3511 29.9437 61.8411 30.0801 62.3767 30.171C62.3197 30.3643 62.2627 30.5575 62.2171 30.7394C61.5562 30.3415 60.8838 29.9664 60.1659 29.6481C57.8867 28.6364 55.9722 28.3067 54.3768 28.3067C52.7244 28.3067 51.4025 28.6477 50.3541 28.9206C50.0919 28.9888 49.8526 29.057 49.6247 29.1025C48.5307 29.3866 47.5393 29.8868 46.6618 30.3302ZM13.534 4.26392C14.2519 4.86641 15.0952 5.57121 16.1095 6.36695C17.8302 7.73108 28.8387 17.064 34.7645 22.0886C34.5138 22.1568 34.2859 22.3045 34.1377 22.5205L32.8044 24.4303L31.5167 24.1575L10.2178 3.26356C10.4571 3.0021 10.7534 2.6838 11.0611 2.36551C11.5283 2.58149 12.5426 3.43407 13.534 4.26392Z" fill="black"/>
</svg>
