<?xml version="1.0" standalone="no"?>
<!DOCTYPE svg PUBLIC "-//W3C//DTD SVG 20010904//EN"
 "http://www.w3.org/TR/2001/REC-SVG-20010904/DTD/svg10.dtd">
<svg version="1.0" xmlns="http://www.w3.org/2000/svg"
 width="1440.000000pt" height="1440.000000pt" viewBox="0 0 1440.000000 1440.000000"
 preserveAspectRatio="xMidYMid meet">
<metadata>
Created by potrace 1.14, written by Peter Selinger 2001-2017
</metadata>
<g transform="translate(0.000000,1440.000000) scale(0.100000,-0.100000)"
fill="#000000" stroke="none">
<path d="M9994 14386 c-43 -19 -90 -67 -108 -109 -8 -21 -16 -84 -19 -153 -3
-66 -6 -119 -7 -119 -1 0 -3 -18 -5 -40 -9 -78 -24 -174 -31 -195 -3 -8 -8
-28 -11 -45 -6 -41 -81 -315 -93 -340 -5 -11 -20 -51 -33 -90 -61 -177 -271
-618 -323 -676 -8 -8 -14 -19 -14 -23 0 -11 -53 -95 -60 -96 -3 0 -29 15 -57
34 -46 30 -126 66 -188 84 -11 3 -72 6 -135 6 -129 1 -189 -13 -298 -71 -70
-38 -84 -48 -151 -113 -90 -87 -151 -202 -178 -335 -8 -35 -11 -50 -13 -50 -6
0 -13 -122 -13 -235 0 -121 5 -200 18 -282 3 -16 7 -43 10 -60 3 -18 10 -55
15 -83 5 -27 12 -61 14 -75 2 -14 9 -45 16 -70 6 -25 13 -58 16 -74 3 -16 10
-40 15 -54 8 -20 5 -32 -15 -61 -13 -20 -67 -102 -119 -182 -53 -81 -108 -166
-124 -189 -15 -24 -32 -50 -38 -60 -42 -70 -251 -386 -257 -388 -5 -2 -8 -8
-8 -12 0 -9 -152 -246 -241 -377 -27 -39 -49 -76 -49 -82 0 -6 -4 -11 -10 -11
-5 0 -10 -6 -10 -13 0 -7 -9 -23 -20 -35 -11 -12 -20 -23 -20 -26 0 -6 -215
-336 -230 -353 -6 -7 -7 -13 -3 -13 4 0 3 -4 -2 -8 -6 -4 -25 -29 -43 -57 -17
-27 -36 -55 -42 -62 -5 -7 -10 -15 -10 -18 0 -3 -16 -28 -35 -55 -19 -27 -35
-52 -35 -54 0 -2 -25 -40 -55 -84 -30 -44 -55 -83 -55 -86 0 -7 -40 -66 -50
-76 -3 -3 -19 -27 -35 -55 -16 -27 -32 -54 -37 -60 -5 -5 -45 -66 -89 -135
-44 -69 -94 -144 -110 -168 -16 -23 -29 -45 -29 -48 0 -3 -5 -10 -10 -17 -6
-7 -23 -32 -39 -57 -16 -25 -61 -94 -100 -154 -39 -60 -71 -110 -71 -112 0 -2
-57 -90 -80 -124 -6 -8 -32 -49 -59 -90 -27 -41 -78 -120 -113 -175 -153 -237
-181 -280 -181 -285 0 -3 -5 -10 -11 -17 -6 -6 -41 -58 -77 -115 -37 -56 -117
-182 -179 -278 -62 -96 -130 -202 -151 -235 -21 -33 -42 -64 -46 -70 -5 -5
-24 -35 -43 -65 -19 -30 -38 -56 -42 -58 -5 -2 -8 -8 -8 -13 0 -5 -26 -49 -58
-97 -31 -48 -59 -91 -62 -97 -3 -5 -30 -48 -61 -95 -31 -47 -62 -96 -69 -110
-7 -14 -16 -27 -19 -30 -4 -3 -31 -43 -61 -90 -29 -47 -58 -88 -64 -92 -6 -4
-8 -8 -5 -8 7 0 -88 -152 -110 -177 -6 -7 -11 -15 -11 -18 0 -3 -5 -11 -10
-18 -6 -7 -74 -111 -151 -232 -77 -121 -155 -242 -173 -270 -18 -27 -56 -86
-85 -130 -28 -44 -55 -87 -61 -95 -5 -8 -37 -58 -71 -110 -34 -52 -82 -127
-108 -167 -25 -39 -84 -131 -131 -204 -155 -242 -189 -294 -199 -306 -6 -7
-11 -17 -11 -23 0 -5 -4 -10 -10 -10 -5 0 -10 -4 -10 -10 0 -5 -22 -43 -50
-84 -27 -41 -50 -77 -50 -81 0 -4 -9 -19 -21 -33 -21 -29 -37 -52 -131 -200
-70 -110 -82 -163 -53 -237 18 -50 60 -87 165 -150 36 -21 67 -41 70 -44 3 -3
19 -13 35 -22 58 -31 600 -373 603 -381 2 -4 9 -8 15 -8 7 0 37 -17 69 -38
122 -80 207 -132 217 -132 6 0 11 -4 11 -10 0 -5 7 -10 15 -10 8 0 15 -4 15
-10 0 -5 6 -10 13 -10 6 0 30 -14 51 -30 22 -17 45 -30 51 -30 7 0 20 -9 30
-20 10 -11 24 -20 32 -20 7 0 13 -4 13 -9 0 -5 8 -12 18 -15 9 -4 29 -13 44
-22 92 -50 219 -10 272 85 23 43 141 227 153 239 7 7 13 18 13 23 0 5 5 15 11
22 21 24 138 209 144 228 4 10 10 19 13 19 4 0 18 20 32 45 14 25 28 45 32 45
5 0 8 4 8 9 0 5 45 79 100 165 55 86 100 160 100 166 0 6 7 13 15 16 8 4 15
11 15 18 0 7 7 21 15 31 9 11 33 47 54 80 21 33 70 110 109 172 40 61 72 117
72 122 0 6 3 11 8 11 4 0 16 16 26 35 11 19 23 35 28 35 4 0 8 5 8 11 0 6 15
34 34 62 129 198 356 560 356 568 0 5 7 12 15 15 8 4 15 10 15 14 0 11 103
174 113 178 4 2 7 8 7 14 0 6 10 25 23 42 13 17 26 38 30 46 5 12 155 247 197
310 37 55 100 154 100 156 0 2 32 52 70 110 39 59 70 109 70 111 0 2 11 19 25
37 14 18 25 35 25 38 0 3 32 53 70 112 39 58 70 108 70 111 0 3 5 11 10 18 15
17 204 313 236 370 15 26 31 47 36 47 4 0 8 4 8 10 0 8 95 162 160 260 13 19
82 128 128 200 19 30 47 74 63 98 16 23 29 47 29 52 0 6 3 10 8 10 4 0 13 13
19 28 7 15 20 36 28 47 9 11 67 101 130 200 63 99 119 187 124 195 30 43 91
141 91 146 0 3 5 10 11 17 14 17 119 178 119 184 0 2 13 23 29 46 45 66 62
105 65 149 7 93 -29 144 -159 223 -44 27 -82 51 -85 54 -3 4 -32 26 -65 51
-93 70 -122 97 -269 253 -66 69 -195 291 -212 365 -4 15 -9 32 -13 37 -3 6 -6
17 -8 25 -1 9 -8 42 -16 75 -19 81 -15 289 8 380 9 39 18 75 19 80 6 30 61
170 68 173 4 2 8 10 8 17 0 8 14 37 30 65 17 28 30 54 30 57 0 3 20 36 45 74
25 38 45 71 45 74 0 3 5 11 10 18 20 22 80 119 80 127 0 5 6 13 13 17 6 4 21
24 31 43 11 19 24 40 29 45 4 6 33 48 62 95 30 47 59 92 65 100 6 8 15 22 20
30 11 18 19 10 26 -26 6 -31 7 -34 17 -74 13 -50 66 -276 71 -305 3 -16 21
-100 40 -187 19 -86 37 -169 40 -185 4 -24 14 -73 33 -163 2 -14 6 -34 8 -45
2 -11 11 -60 20 -110 9 -49 19 -99 21 -110 1 -11 5 -31 8 -45 4 -21 21 -118
71 -425 4 -22 8 -53 10 -70 2 -16 9 -61 15 -100 6 -38 13 -86 15 -105 3 -19 7
-51 9 -70 3 -19 7 -53 10 -75 3 -22 8 -51 10 -65 3 -14 7 -52 10 -85 3 -33 6
-60 6 -60 3 0 8 -34 14 -100 3 -39 8 -81 11 -95 2 -14 6 -54 10 -90 3 -36 7
-81 9 -100 5 -40 13 -132 21 -235 3 -38 8 -90 10 -115 3 -25 7 -83 10 -130 3
-47 7 -121 10 -165 11 -161 16 -283 19 -396 2 -64 6 -121 10 -128 4 -6 4 -11
-1 -11 -4 0 -8 -20 -8 -45 0 -25 2 -45 5 -45 4 0 4 -286 0 -717 0 -7 0 -19 1
-25 0 -25 -10 -374 -15 -483 -3 -60 -8 -175 -12 -255 -3 -80 -7 -172 -9 -205
-2 -33 -6 -109 -10 -170 -3 -60 -7 -137 -9 -170 -2 -33 -7 -105 -11 -160 -11
-175 -14 -218 -19 -285 -3 -36 -8 -101 -11 -145 -3 -44 -8 -107 -11 -140 -2
-33 -6 -85 -8 -115 -2 -30 -7 -89 -11 -130 -3 -41 -8 -97 -10 -125 -2 -27 -4
-50 -5 -50 -1 0 -3 -20 -5 -45 -9 -115 -16 -198 -20 -230 -2 -19 -6 -69 -9
-110 -3 -41 -8 -93 -11 -115 -8 -62 -16 -135 -19 -190 -2 -27 -6 -72 -10 -100
-3 -27 -8 -77 -11 -110 -3 -33 -7 -69 -9 -81 -2 -12 -8 -57 -12 -100 -9 -102
-10 -118 -18 -184 -4 -30 -8 -71 -10 -90 -6 -54 -17 -152 -21 -185 -2 -16 -6
-57 -10 -90 -3 -33 -8 -73 -10 -90 -6 -37 -13 -96 -19 -155 -5 -50 -17 -136
-21 -162 -2 -9 -7 -48 -10 -85 -4 -37 -9 -70 -10 -73 -2 -3 -6 -41 -10 -85 -4
-44 -9 -83 -11 -86 -6 -11 -17 -105 -16 -150 0 -85 -34 -47 540 -607 154 -152
288 -275 310 -285 51 -24 116 -19 177 12 45 24 215 132 287 182 15 10 29 19
32 19 5 0 167 105 183 119 7 6 15 11 18 11 3 0 33 18 65 40 32 22 62 40 65 40
3 0 11 5 18 11 7 5 68 47 137 92 161 106 170 121 185 327 3 36 7 83 10 105 2
22 7 65 10 95 2 30 7 84 11 120 8 87 10 119 18 220 4 47 9 108 12 135 3 28 7
79 9 115 2 36 6 93 9 127 12 129 17 195 31 413 2 36 6 94 9 130 3 36 8 108 11
160 3 52 8 136 11 185 6 90 8 138 18 335 3 58 8 148 11 200 13 248 17 365 30
740 5 147 13 579 16 866 1 99 -1 186 -5 192 -3 6 -2 13 4 17 6 4 8 10 6 13 -2
4 -7 154 -11 332 -4 179 -8 361 -10 405 -10 228 -18 357 -30 508 -3 34 -7 91
-10 127 -3 36 -7 88 -9 116 -3 28 -7 84 -11 125 -3 41 -8 90 -10 109 -3 19 -7
64 -10 100 -3 36 -7 79 -9 95 -2 17 -7 62 -11 100 -3 39 -8 90 -11 115 -3 25
-7 61 -9 80 -4 50 -17 152 -21 174 -6 33 -18 160 -19 194 0 17 -3 32 -6 32 -3
0 -6 20 -8 44 -1 25 -4 53 -6 64 -8 42 -18 118 -21 152 -1 19 -3 35 -4 35 -3
0 -7 26 -14 85 -6 52 -8 72 -22 165 -3 22 -8 54 -10 70 -19 128 -24 165 -30
200 -3 22 -7 49 -9 60 -4 28 -45 285 -50 313 -2 12 -9 48 -14 80 -6 31 -13 73
-16 92 -7 43 -23 137 -30 170 -11 58 -38 207 -50 275 -3 22 -8 48 -11 57 -3
10 -7 30 -10 45 -6 36 -20 110 -48 243 -8 41 -17 86 -20 100 -5 24 -19 90 -30
140 -3 14 -8 36 -11 50 -3 14 -8 36 -11 50 -3 14 -7 36 -10 49 -6 29 -56 240
-86 361 -11 46 -21 90 -22 97 -1 7 -5 16 -9 19 -4 4 -7 15 -7 24 0 25 -103
398 -157 570 -25 80 -48 155 -50 168 -3 12 -9 25 -14 28 -5 3 -9 13 -9 22 0 9
-18 63 -39 120 -22 56 -37 102 -34 102 3 0 -1 10 -9 23 -8 12 -25 49 -38 82
-38 98 -116 252 -176 346 -26 42 -26 43 -8 73 9 17 20 33 23 36 3 3 11 14 17
25 26 48 39 70 44 75 3 3 11 16 19 30 8 14 36 63 63 109 26 46 48 90 48 97 0
7 4 14 8 16 10 3 112 210 112 225 0 6 7 16 15 23 8 7 15 19 15 26 0 7 12 39
26 71 14 32 30 68 35 81 5 12 13 32 18 45 42 104 108 302 137 412 4 17 8 32 9
35 2 10 15 65 20 88 3 12 7 32 10 45 3 12 12 63 21 112 8 50 17 101 19 115 15
81 22 306 12 361 -8 42 -68 116 -106 131 -44 17 -124 19 -157 4z m-977 -2178
c72 -36 163 -130 237 -246 54 -85 166 -304 166 -326 0 -3 5 -17 12 -33 6 -15
12 -30 13 -33 1 -3 7 -18 14 -35 17 -39 152 -444 157 -470 2 -11 13 -49 23
-85 38 -125 150 -555 167 -640 3 -14 9 -41 14 -60 5 -19 11 -46 14 -60 3 -14
15 -65 26 -115 11 -49 25 -110 30 -135 5 -25 18 -85 29 -135 11 -49 22 -103
25 -120 2 -16 7 -41 11 -55 3 -14 8 -41 11 -60 3 -19 7 -42 10 -50 3 -8 7 -24
9 -35 9 -49 16 -92 21 -120 2 -16 9 -50 14 -75 5 -25 12 -58 15 -75 5 -31 22
-124 29 -161 2 -12 7 -37 10 -55 3 -19 8 -45 10 -59 6 -30 62 -369 70 -425 4
-22 8 -47 11 -55 2 -8 7 -42 10 -75 4 -32 8 -62 10 -65 2 -3 6 -30 10 -60 9
-75 13 -100 19 -135 3 -16 8 -52 11 -80 4 -27 8 -57 10 -65 3 -8 7 -42 11 -74
3 -33 8 -69 10 -80 2 -12 6 -43 9 -71 4 -27 8 -61 10 -75 2 -14 7 -47 10 -75
14 -122 36 -302 40 -325 2 -14 7 -54 10 -90 3 -36 7 -81 10 -100 3 -19 7 -60
9 -90 3 -30 7 -68 9 -85 3 -16 8 -64 12 -105 3 -41 8 -93 11 -115 2 -22 6 -65
8 -95 3 -30 7 -80 10 -110 8 -78 15 -173 21 -260 3 -41 7 -109 10 -150 6 -86
13 -199 22 -385 9 -192 8 -1495 -1 -1750 -18 -488 -25 -656 -31 -755 -2 -41
-7 -133 -10 -205 -4 -71 -8 -157 -10 -190 -3 -33 -7 -103 -10 -155 -6 -113
-11 -192 -20 -320 -3 -52 -8 -120 -10 -150 -3 -54 -10 -149 -21 -285 -3 -38
-7 -92 -9 -120 -4 -65 -15 -211 -20 -255 -2 -19 -6 -75 -10 -125 -4 -49 -9
-110 -11 -135 -2 -25 -6 -72 -8 -105 -3 -33 -8 -85 -11 -115 -3 -30 -7 -73 -9
-95 -3 -22 -5 -54 -5 -70 -1 -27 -11 -37 -103 -95 -57 -35 -109 -70 -116 -77
-7 -7 -19 -13 -27 -13 -7 0 -15 -4 -17 -8 -1 -4 -39 -30 -82 -57 -104 -64
-208 -132 -222 -144 -6 -5 -26 -17 -45 -26 -19 -10 -37 -22 -40 -28 -4 -5 -13
-6 -22 -1 -8 5 -135 126 -281 269 l-265 261 4 39 c11 95 17 150 20 166 2 10 6
45 10 78 3 33 8 68 10 79 2 10 6 45 9 78 4 32 11 89 16 126 10 66 17 132 25
218 3 25 7 61 9 80 5 34 12 94 21 175 2 22 7 60 10 85 3 25 8 70 11 100 11
121 13 137 19 180 3 25 7 68 10 95 2 28 7 70 9 95 3 25 8 74 12 110 3 36 8 79
9 95 2 17 6 62 10 100 14 158 20 229 29 320 3 22 7 81 11 130 3 50 8 104 10
120 2 17 7 66 10 110 4 44 9 105 11 135 2 30 6 84 9 120 2 36 7 94 9 130 3 36
8 101 11 145 3 44 8 109 10 145 3 36 7 103 10 150 3 47 7 117 10 155 5 66 12
198 20 365 2 41 7 131 10 200 4 69 8 177 10 240 3 63 7 201 11 305 9 255 9
958 0 1175 -10 257 -15 347 -21 425 -3 39 -8 106 -11 150 -4 84 -10 159 -19
260 -3 33 -8 94 -11 135 -2 41 -7 86 -9 100 -3 14 -7 52 -10 85 -4 33 -8 80
-11 105 -3 25 -7 68 -10 95 -2 28 -7 66 -10 85 -4 19 -8 51 -10 70 -1 19 -6
55 -9 80 -7 49 -11 82 -20 150 -3 25 -7 54 -9 65 -2 11 -7 47 -11 80 -5 33 -9
67 -10 75 -2 8 -5 33 -9 55 -3 22 -7 49 -10 60 -2 11 -7 42 -10 68 -4 27 -9
56 -10 65 -2 10 -7 39 -10 65 -4 27 -9 59 -12 70 -4 23 -11 64 -19 125 -3 20
-8 44 -11 54 -2 9 -9 40 -14 70 -5 29 -11 64 -14 78 -3 14 -7 39 -10 55 -7 40
-14 79 -28 145 -6 30 -12 62 -14 70 -3 20 -33 169 -40 200 -3 14 -10 45 -15
70 -14 66 -17 83 -23 105 -2 11 -14 63 -25 115 -11 52 -33 145 -47 205 -15 61
-28 117 -29 125 -1 8 -8 35 -15 60 -6 25 -14 56 -16 70 -3 14 -7 32 -10 40 -3
8 -8 26 -10 40 -3 14 -8 36 -13 50 -7 21 -26 96 -35 142 -2 7 -5 20 -8 28 -5
13 -59 230 -73 295 -34 153 -42 191 -51 265 -3 25 -9 59 -13 75 -18 72 -9 322
13 400 12 41 30 75 39 75 6 0 8 3 4 6 -17 17 75 84 143 105 39 11 107 2 157
-23z m-1467 -3182 c0 -26 51 -176 86 -253 39 -85 94 -177 168 -281 l66 -91
-96 -148 c-54 -81 -119 -182 -145 -223 -27 -41 -53 -80 -59 -87 -5 -7 -10 -17
-10 -23 0 -5 -4 -10 -10 -10 -5 0 -10 -4 -10 -9 0 -4 -22 -41 -48 -82 -27 -41
-81 -123 -120 -184 -39 -60 -76 -117 -82 -125 -68 -103 -130 -202 -130 -206 0
-3 -5 -10 -11 -17 -12 -14 -179 -268 -179 -273 0 -1 -34 -53 -75 -115 -41 -61
-75 -114 -75 -116 0 -8 -63 -98 -74 -105 -6 -4 -8 -8 -4 -8 3 0 -27 -50 -68
-111 -41 -62 -74 -116 -74 -120 0 -5 -4 -9 -10 -9 -5 0 -10 -4 -10 -10 0 -5
-18 -35 -39 -67 -55 -82 -204 -312 -226 -350 -11 -18 -22 -33 -26 -33 -4 0 -9
-8 -13 -17 -3 -10 -23 -44 -43 -76 -110 -166 -209 -320 -218 -335 -5 -9 -12
-19 -15 -22 -3 -3 -9 -13 -15 -22 -5 -10 -66 -103 -135 -208 -69 -106 -134
-207 -145 -225 -11 -19 -26 -42 -33 -52 -16 -22 -113 -172 -180 -278 -28 -44
-55 -84 -59 -90 -5 -5 -59 -89 -121 -185 -135 -210 -133 -207 -154 -235 -10
-13 -18 -26 -18 -29 0 -4 -5 -12 -10 -19 -18 -21 -153 -229 -167 -257 -4 -8
-11 -19 -16 -25 -13 -15 -157 -237 -157 -242 0 -2 -5 -9 -10 -16 -11 -12 -162
-245 -215 -329 -17 -27 -32 -48 -35 -48 -3 0 -29 16 -59 35 -29 19 -55 35 -57
35 -3 0 -37 21 -77 48 -40 26 -81 52 -92 59 -26 15 -215 133 -237 148 -15 10
-9 25 65 141 97 151 158 246 239 368 32 48 58 92 58 97 0 5 5 9 10 9 6 0 10 4
10 10 0 5 43 76 96 157 53 81 119 184 148 228 28 44 54 82 59 83 4 2 7 7 7 12
0 9 139 230 151 240 3 3 14 21 25 40 10 19 21 37 24 40 8 7 254 391 259 404 2
5 8 15 13 21 5 5 37 53 71 106 34 52 87 133 117 180 30 46 57 89 60 94 3 6 32
51 65 100 32 50 66 102 75 116 24 42 304 473 310 479 3 3 10 14 17 25 56 92
82 133 138 220 36 55 73 110 82 123 18 24 37 56 50 82 4 8 11 20 16 25 4 6 39
57 76 115 196 304 261 405 326 506 40 60 92 141 116 180 24 38 46 71 49 74 3
3 28 41 55 85 27 44 51 82 55 85 5 4 31 44 113 174 6 11 47 73 90 137 42 65
77 123 77 128 0 6 6 14 13 18 7 4 18 19 25 33 14 30 35 63 43 70 3 3 19 25 34
50 38 60 103 161 192 297 40 61 76 119 80 129 6 16 7 16 20 -2 7 -10 13 -27
13 -38z m670 -947 c30 -23 56 -42 58 -44 5 -5 -21 -55 -30 -55 -4 0 -8 -7 -8
-15 0 -8 -5 -15 -12 -15 -6 0 -8 -3 -5 -7 4 -3 1 -13 -7 -22 -7 -9 -37 -54
-66 -101 -29 -47 -56 -87 -60 -90 -4 -3 -9 -10 -11 -15 -4 -10 -88 -144 -171
-273 -20 -31 -51 -81 -68 -110 -17 -28 -37 -58 -43 -65 -7 -7 -18 -23 -24 -35
-33 -57 -39 -67 -46 -76 -23 -31 -77 -119 -77 -126 0 -5 -4 -10 -8 -12 -4 -1
-30 -39 -57 -83 -27 -44 -52 -82 -55 -85 -4 -3 -10 -12 -13 -20 -4 -8 -15 -27
-25 -42 -9 -15 -98 -153 -197 -308 -99 -154 -185 -288 -190 -297 -6 -10 -31
-51 -58 -91 -26 -40 -47 -76 -47 -81 0 -5 -7 -14 -15 -21 -7 -6 -28 -37 -46
-68 -17 -31 -35 -59 -39 -62 -3 -3 -15 -21 -26 -40 -10 -19 -22 -37 -25 -40
-4 -3 -15 -19 -25 -37 -38 -64 -128 -208 -134 -213 -5 -4 -104 -159 -145 -228
-6 -9 -32 -49 -58 -88 -26 -39 -47 -76 -47 -83 0 -6 -3 -11 -8 -11 -4 0 -18
-20 -32 -45 -14 -25 -28 -45 -32 -45 -5 0 -8 -5 -8 -11 0 -7 -16 -34 -35 -60
-19 -27 -35 -51 -35 -54 0 -2 -29 -48 -63 -102 -35 -54 -82 -127 -105 -163
-22 -36 -46 -70 -51 -77 -6 -7 -11 -14 -11 -17 0 -6 -115 -186 -130 -203 -5
-7 -10 -15 -10 -18 0 -4 -15 -27 -32 -53 -18 -26 -40 -59 -48 -73 -18 -31
-104 -168 -168 -266 -26 -40 -92 -144 -147 -230 -54 -87 -103 -162 -108 -168
-4 -5 -28 -41 -52 -80 -24 -38 -63 -101 -87 -138 -59 -94 -68 -107 -112 -179
-22 -35 -59 -93 -83 -130 l-44 -67 -82 51 c-99 61 -91 54 -83 70 14 27 141
224 187 290 10 15 19 31 19 37 0 5 4 11 8 13 4 2 27 35 51 73 24 39 48 72 53
73 4 2 8 8 8 12 0 9 127 207 241 378 27 40 49 75 49 78 0 3 8 16 18 29 9 12
23 31 29 41 46 70 190 292 229 354 27 41 92 142 146 224 54 81 98 150 98 152
0 2 16 27 35 54 19 27 35 54 35 60 0 5 3 10 8 10 4 0 16 17 27 37 11 20 25 41
30 47 6 6 22 29 35 51 40 66 159 249 171 263 6 7 16 23 22 35 7 12 37 60 68
107 31 47 79 121 107 165 28 44 55 85 59 90 5 6 35 53 68 105 33 52 63 100 67
105 22 27 138 210 138 217 0 4 5 8 10 8 6 0 10 4 10 9 0 9 77 131 89 141 4 3
12 16 18 30 7 14 53 86 103 160 50 74 93 142 97 150 4 8 9 17 13 20 3 3 37 55
75 115 38 61 73 115 77 120 5 6 21 30 37 55 89 139 172 267 181 277 5 7 15 24
22 38 6 14 15 25 20 25 4 0 8 4 8 9 0 8 66 112 171 269 27 40 49 77 49 82 0 6
5 10 10 10 6 0 10 7 10 15 0 8 5 15 10 15 6 0 10 5 10 10 0 10 56 98 80 127 6
7 15 24 22 38 6 14 15 25 19 25 4 0 9 6 11 13 4 17 121 197 128 197 3 0 30
-18 60 -41z"/>
</g>
</svg>
